<?xml version="1.0" encoding="UTF-8" standalone="no"?>
<!DOCTYPE svg PUBLIC "-//W3C//DTD SVG 1.1//EN"
 "http://www.w3.org/Graphics/SVG/1.1/DTD/svg11.dtd">
<!-- Generated by graphviz version 2.40.1 (20161225.0304)
 -->
<!-- Title: G Pages: 1 -->
<svg width="1096pt" height="2956pt"
 viewBox="0.00 0.00 1096.02 2956.41" xmlns="http://www.w3.org/2000/svg" xmlns:xlink="http://www.w3.org/1999/xlink">
<g id="graph0" class="graph" transform="scale(1 1) rotate(0) translate(4 2952.4057)">
<title>G</title>
<polygon fill="#ffffff" stroke="transparent" points="-4,4 -4,-2952.4057 1092.025,-2952.4057 1092.025,4 -4,4"/>
<!-- n1 -->
<g id="node1" class="node">
<title>n1</title>
<g id="a_node1"><a xlink:title="[[C]]:&#45;1_">
<ellipse fill="none" stroke="#000000" cx="832.7595" cy="-2910.929" rx="77.5641" ry="37.4533"/>
<text text-anchor="middle" x="832.7595" y="-2922.229" font-family="Times,serif" font-size="14.00" fill="#000000">Node1</text>
<text text-anchor="start" x="785.7595" y="-2907.229" font-family="Times,serif" font-size="14.00" fill="#000000">input = {}</text>
<text text-anchor="middle" x="832.7595" y="-2892.229" font-family="Times,serif" font-size="14.00" fill="#000000">reverseMap = {}</text>
</a>
</g>
</g>
<!-- n2 -->
<g id="node2" class="node">
<title>n2</title>
<g id="a_node2"><a xlink:title="[[C]]:&#45;1_">
<ellipse fill="none" stroke="#000000" cx="832.7595" cy="-2736.3361" rx="255.0313" ry="101.2327"/>
<text text-anchor="middle" x="832.7595" y="-2792.6361" font-family="Times,serif" font-size="14.00" fill="#000000">Node2</text>
<text text-anchor="start" x="660.2595" y="-2777.6361" font-family="Times,serif" font-size="14.00" fill="#000000">module = nn.Sequential {</text>
<text text-anchor="start" x="660.2595" y="-2762.6361" font-family="Times,serif" font-size="14.00" fill="#000000"> &#160;[input &#45;&gt; (1) &#45;&gt; (2) &#45;&gt; (3) &#45;&gt; (4) &#45;&gt; output]</text>
<text text-anchor="start" x="660.2595" y="-2747.6361" font-family="Times,serif" font-size="14.00" fill="#000000"> &#160;(1): oc.OctreeGridUnpool2x2x2</text>
<text text-anchor="start" x="660.2595" y="-2732.6361" font-family="Times,serif" font-size="14.00" fill="#000000"> &#160;(2): oc.OctreeConvolutionMM(160 &#45;&gt; 1, 3x3x3, 1,1,1, 1,1,1)</text>
<text text-anchor="start" x="660.2595" y="-2717.6361" font-family="Times,serif" font-size="14.00" fill="#000000"> &#160;(3): oc.OctreeBatchNormalizationSS</text>
<text text-anchor="start" x="660.2595" y="-2702.6361" font-family="Times,serif" font-size="14.00" fill="#000000"> &#160;(4): oc.OctreeReLU</text>
<text text-anchor="start" x="660.2595" y="-2687.6361" font-family="Times,serif" font-size="14.00" fill="#000000">}</text>
<text text-anchor="middle" x="832.7595" y="-2672.6361" font-family="Times,serif" font-size="14.00" fill="#000000">reverseMap = {}</text>
</a>
</g>
</g>
<!-- n1&#45;&gt;n2 -->
<g id="edge1" class="edge">
<title>n1&#45;&gt;n2</title>
<path fill="none" stroke="#000000" d="M832.7595,-2873.045C832.7595,-2865.2481 832.7595,-2856.6671 832.7595,-2847.7199"/>
<polygon fill="#000000" stroke="#000000" points="836.2595,-2847.4848 832.7595,-2837.4848 829.2595,-2847.4848 836.2595,-2847.4848"/>
</g>
<!-- n3 -->
<g id="node3" class="node">
<title>n3</title>
<g id="a_node3"><a xlink:title="[./3d_test.lua]:167_">
<ellipse fill="none" stroke="#000000" cx="832.7595" cy="-2551.1366" rx="124.4016" ry="48.1667"/>
<text text-anchor="middle" x="832.7595" y="-2569.9366" font-family="Times,serif" font-size="14.00" fill="#000000">Node3</text>
<text text-anchor="start" x="752.7595" y="-2554.9366" font-family="Times,serif" font-size="14.00" fill="#000000">module = oc.OctreeConcat</text>
<text text-anchor="start" x="752.7595" y="-2539.9366" font-family="Times,serif" font-size="14.00" fill="#000000">reverseMap = {}</text>
<text text-anchor="middle" x="832.7595" y="-2524.9366" font-family="Times,serif" font-size="14.00" fill="#000000">mapindex = {Node4,Node5}</text>
</a>
</g>
</g>
<!-- n2&#45;&gt;n3 -->
<g id="edge2" class="edge">
<title>n2&#45;&gt;n3</title>
<path fill="none" stroke="#000000" d="M832.7595,-2635.0664C832.7595,-2626.3975 832.7595,-2617.8307 832.7595,-2609.6738"/>
<polygon fill="#000000" stroke="#000000" points="836.2596,-2609.5839 832.7595,-2599.5839 829.2596,-2609.5839 836.2596,-2609.5839"/>
</g>
<!-- n4 -->
<g id="node4" class="node">
<title>n4</title>
<g id="a_node4"><a xlink:title="[[C]]:&#45;1_">
<ellipse fill="none" stroke="#000000" cx="688.7595" cy="-2365.937" rx="260.4308" ry="101.2327"/>
<text text-anchor="middle" x="688.7595" y="-2422.237" font-family="Times,serif" font-size="14.00" fill="#000000">Node4</text>
<text text-anchor="start" x="512.7595" y="-2407.237" font-family="Times,serif" font-size="14.00" fill="#000000">module = nn.Sequential {</text>
<text text-anchor="start" x="512.7595" y="-2392.237" font-family="Times,serif" font-size="14.00" fill="#000000"> &#160;[input &#45;&gt; (1) &#45;&gt; (2) &#45;&gt; (3) &#45;&gt; (4) &#45;&gt; output]</text>
<text text-anchor="start" x="512.7595" y="-2377.237" font-family="Times,serif" font-size="14.00" fill="#000000"> &#160;(1): oc.OctreeGridUnpool2x2x2</text>
<text text-anchor="start" x="512.7595" y="-2362.237" font-family="Times,serif" font-size="14.00" fill="#000000"> &#160;(2): oc.OctreeConvolutionMM(320 &#45;&gt; 80, 3x3x3, 1,1,1, 1,1,1)</text>
<text text-anchor="start" x="512.7595" y="-2347.237" font-family="Times,serif" font-size="14.00" fill="#000000"> &#160;(3): oc.OctreeBatchNormalizationSS</text>
<text text-anchor="start" x="512.7595" y="-2332.237" font-family="Times,serif" font-size="14.00" fill="#000000"> &#160;(4): oc.OctreeReLU</text>
<text text-anchor="start" x="512.7595" y="-2317.237" font-family="Times,serif" font-size="14.00" fill="#000000">}</text>
<text text-anchor="middle" x="688.7595" y="-2302.237" font-family="Times,serif" font-size="14.00" fill="#000000">reverseMap = {}</text>
</a>
</g>
</g>
<!-- n3&#45;&gt;n4 -->
<g id="edge3" class="edge">
<title>n3&#45;&gt;n4</title>
<path fill="none" stroke="#000000" d="M796.7936,-2504.8806C788.6715,-2494.4347 779.725,-2482.9286 770.5627,-2471.1449"/>
<polygon fill="#000000" stroke="#000000" points="773.094,-2468.6983 764.1926,-2462.9522 767.5678,-2472.9951 773.094,-2468.6983"/>
</g>
<!-- n5 -->
<g id="node5" class="node">
<title>n5</title>
<g id="a_node5"><a xlink:title="[[C]]:&#45;1_">
<ellipse fill="none" stroke="#000000" cx="832.7595" cy="-312.4163" rx="250.1317" ry="90.5193"/>
<text text-anchor="middle" x="832.7595" y="-361.2163" font-family="Times,serif" font-size="14.00" fill="#000000">Node5</text>
<text text-anchor="start" x="663.7595" y="-346.2163" font-family="Times,serif" font-size="14.00" fill="#000000">module = nn.Sequential {</text>
<text text-anchor="start" x="663.7595" y="-331.2163" font-family="Times,serif" font-size="14.00" fill="#000000"> &#160;[input &#45;&gt; (1) &#45;&gt; (2) &#45;&gt; (3) &#45;&gt; output]</text>
<text text-anchor="start" x="663.7595" y="-316.2163" font-family="Times,serif" font-size="14.00" fill="#000000"> &#160;(1): oc.OctreeConvolutionMM(2 &#45;&gt; 80, 3x3x3, 1,1,1, 1,1,1)</text>
<text text-anchor="start" x="663.7595" y="-301.2163" font-family="Times,serif" font-size="14.00" fill="#000000"> &#160;(2): oc.OctreeGridPool2x2x2</text>
<text text-anchor="start" x="663.7595" y="-286.2163" font-family="Times,serif" font-size="14.00" fill="#000000"> &#160;(3): oc.OctreeReLU</text>
<text text-anchor="start" x="663.7595" y="-271.2163" font-family="Times,serif" font-size="14.00" fill="#000000">}</text>
<text text-anchor="middle" x="832.7595" y="-256.2163" font-family="Times,serif" font-size="14.00" fill="#000000">reverseMap = {}</text>
</a>
</g>
</g>
<!-- n3&#45;&gt;n5 -->
<g id="edge4" class="edge">
<title>n3&#45;&gt;n5</title>
<path fill="none" stroke="#000000" d="M911.6948,-2513.8331C929.7744,-2501.5037 946.8616,-2485.9787 957.7595,-2467.0533 1021.399,-2356.5352 976.7595,-2308.2689 976.7595,-2180.7375 976.7595,-2180.7375 976.7595,-2180.7375 976.7595,-778.2748 976.7595,-627.2169 1019.0325,-576.9988 957.7595,-438.926 952.3173,-426.6626 945.1212,-414.9174 936.9234,-403.8679"/>
<polygon fill="#000000" stroke="#000000" points="939.6789,-401.7097 930.7879,-395.9476 934.1451,-405.9965 939.6789,-401.7097"/>
</g>
<!-- n6 -->
<g id="node6" class="node">
<title>n6</title>
<g id="a_node6"><a xlink:title="[./3d_test.lua]:166_">
<ellipse fill="none" stroke="#000000" cx="688.7595" cy="-2180.7375" rx="124.4016" ry="48.1667"/>
<text text-anchor="middle" x="688.7595" y="-2199.5375" font-family="Times,serif" font-size="14.00" fill="#000000">Node6</text>
<text text-anchor="start" x="608.7595" y="-2184.5375" font-family="Times,serif" font-size="14.00" fill="#000000">module = oc.OctreeConcat</text>
<text text-anchor="start" x="608.7595" y="-2169.5375" font-family="Times,serif" font-size="14.00" fill="#000000">reverseMap = {}</text>
<text text-anchor="middle" x="688.7595" y="-2154.5375" font-family="Times,serif" font-size="14.00" fill="#000000">mapindex = {Node8,Node9}</text>
</a>
</g>
</g>
<!-- n4&#45;&gt;n6 -->
<g id="edge5" class="edge">
<title>n4&#45;&gt;n6</title>
<path fill="none" stroke="#000000" d="M688.7595,-2264.6674C688.7595,-2255.9984 688.7595,-2247.4317 688.7595,-2239.2747"/>
<polygon fill="#000000" stroke="#000000" points="692.2596,-2239.1848 688.7595,-2229.1848 685.2596,-2239.1849 692.2596,-2239.1848"/>
</g>
<!-- n7 -->
<g id="node7" class="node">
<title>n7</title>
<g id="a_node7"><a xlink:title="[[C]]:&#45;1_">
<ellipse fill="none" stroke="#000000" cx="832.7595" cy="-148.43" rx="94.0904" ry="37.4533"/>
<text text-anchor="middle" x="832.7595" y="-159.73" font-family="Times,serif" font-size="14.00" fill="#000000">Node7</text>
<text text-anchor="start" x="774.2595" y="-144.73" font-family="Times,serif" font-size="14.00" fill="#000000">module = nn.Identity</text>
<text text-anchor="middle" x="832.7595" y="-129.73" font-family="Times,serif" font-size="14.00" fill="#000000">reverseMap = {}</text>
</a>
</g>
</g>
<!-- n5&#45;&gt;n7 -->
<g id="edge6" class="edge">
<title>n5&#45;&gt;n7</title>
<path fill="none" stroke="#000000" d="M832.7595,-221.7897C832.7595,-212.9356 832.7595,-204.2173 832.7595,-196.054"/>
<polygon fill="#000000" stroke="#000000" points="836.2596,-196.0421 832.7595,-186.0421 829.2596,-196.0421 836.2596,-196.0421"/>
</g>
<!-- n8 -->
<g id="node8" class="node">
<title>n8</title>
<g id="a_node8"><a xlink:title="[[C]]:&#45;1_">
<ellipse fill="none" stroke="#000000" cx="490.7595" cy="-1995.538" rx="294.7271" ry="101.2327"/>
<text text-anchor="middle" x="490.7595" y="-2051.838" font-family="Times,serif" font-size="14.00" fill="#000000">Node8</text>
<text text-anchor="start" x="290.2595" y="-2036.838" font-family="Times,serif" font-size="14.00" fill="#000000">module = nn.Sequential {</text>
<text text-anchor="start" x="290.2595" y="-2021.838" font-family="Times,serif" font-size="14.00" fill="#000000"> &#160;[input &#45;&gt; (1) &#45;&gt; (2) &#45;&gt; (3) &#45;&gt; (4) &#45;&gt; output]</text>
<text text-anchor="start" x="290.2595" y="-2006.838" font-family="Times,serif" font-size="14.00" fill="#000000"> &#160;(1): cudnn.VolumetricFullConvolution(640 &#45;&gt; 160, 4x4x4, 2,2,2, 1,1,1)</text>
<text text-anchor="start" x="290.2595" y="-1991.838" font-family="Times,serif" font-size="14.00" fill="#000000"> &#160;(2): cudnn.VolumetricBatchNormalization</text>
<text text-anchor="start" x="290.2595" y="-1976.838" font-family="Times,serif" font-size="14.00" fill="#000000"> &#160;(3): cudnn.ReLU</text>
<text text-anchor="start" x="290.2595" y="-1961.838" font-family="Times,serif" font-size="14.00" fill="#000000"> &#160;(4): oc.CDHWToOctree</text>
<text text-anchor="start" x="290.2595" y="-1946.838" font-family="Times,serif" font-size="14.00" fill="#000000">}</text>
<text text-anchor="middle" x="490.7595" y="-1931.838" font-family="Times,serif" font-size="14.00" fill="#000000">reverseMap = {}</text>
</a>
</g>
</g>
<!-- n6&#45;&gt;n8 -->
<g id="edge7" class="edge">
<title>n6&#45;&gt;n8</title>
<path fill="none" stroke="#000000" d="M641.0816,-2136.1419C628.5113,-2124.3843 614.4152,-2111.1995 600.0266,-2097.7412"/>
<polygon fill="#000000" stroke="#000000" points="602.1763,-2094.9595 592.4822,-2090.6845 597.3946,-2100.0717 602.1763,-2094.9595"/>
</g>
<!-- n9 -->
<g id="node9" class="node">
<title>n9</title>
<g id="a_node9"><a xlink:title="[[C]]:&#45;1_">
<ellipse fill="none" stroke="#000000" cx="688.7595" cy="-540.0422" rx="260.4308" ry="101.2327"/>
<text text-anchor="middle" x="688.7595" y="-596.3422" font-family="Times,serif" font-size="14.00" fill="#000000">Node9</text>
<text text-anchor="start" x="512.7595" y="-581.3422" font-family="Times,serif" font-size="14.00" fill="#000000">module = nn.Sequential {</text>
<text text-anchor="start" x="512.7595" y="-566.3422" font-family="Times,serif" font-size="14.00" fill="#000000"> &#160;[input &#45;&gt; (1) &#45;&gt; (2) &#45;&gt; (3) &#45;&gt; (4) &#45;&gt; output]</text>
<text text-anchor="start" x="512.7595" y="-551.3422" font-family="Times,serif" font-size="14.00" fill="#000000"> &#160;(1): oc.OctreeConvolutionMM(80 &#45;&gt; 160, 3x3x3, 1,1,1, 1,1,1)</text>
<text text-anchor="start" x="512.7595" y="-536.3422" font-family="Times,serif" font-size="14.00" fill="#000000"> &#160;(2): oc.OctreeGridPool2x2x2</text>
<text text-anchor="start" x="512.7595" y="-521.3422" font-family="Times,serif" font-size="14.00" fill="#000000"> &#160;(3): oc.OctreeBatchNormalizationSS</text>
<text text-anchor="start" x="512.7595" y="-506.3422" font-family="Times,serif" font-size="14.00" fill="#000000"> &#160;(4): oc.OctreeReLU</text>
<text text-anchor="start" x="512.7595" y="-491.3422" font-family="Times,serif" font-size="14.00" fill="#000000">}</text>
<text text-anchor="middle" x="688.7595" y="-476.3422" font-family="Times,serif" font-size="14.00" fill="#000000">reverseMap = {}</text>
</a>
</g>
</g>
<!-- n6&#45;&gt;n9 -->
<g id="edge8" class="edge">
<title>n6&#45;&gt;n9</title>
<path fill="none" stroke="#000000" d="M756.971,-2140.4237C771.8896,-2128.2866 785.8644,-2113.6062 794.7595,-2096.6543 854.0156,-1983.7253 813.7595,-1937.8698 813.7595,-1810.3385 813.7595,-1810.3385 813.7595,-1810.3385 813.7595,-1005.9007 813.7595,-859.5492 846.0298,-814.2355 794.7595,-677.1585 790.6008,-666.0398 785.2063,-655.0916 779.0557,-644.5253"/>
<polygon fill="#000000" stroke="#000000" points="781.9048,-642.4739 773.7219,-635.7441 775.922,-646.108 781.9048,-642.4739"/>
</g>
<!-- n10 -->
<g id="node10" class="node">
<title>n10</title>
<g id="a_node10"><a xlink:title="[[C]]:&#45;1_">
<ellipse fill="none" stroke="#000000" cx="832.7595" cy="-37.4767" rx="77.5641" ry="37.4533"/>
<text text-anchor="middle" x="832.7595" y="-48.7767" font-family="Times,serif" font-size="14.00" fill="#000000">Node10</text>
<text text-anchor="start" x="785.7595" y="-33.7767" font-family="Times,serif" font-size="14.00" fill="#000000">input = {}</text>
<text text-anchor="middle" x="832.7595" y="-18.7767" font-family="Times,serif" font-size="14.00" fill="#000000">reverseMap = {}</text>
</a>
</g>
</g>
<!-- n7&#45;&gt;n10 -->
<g id="edge9" class="edge">
<title>n7&#45;&gt;n10</title>
<path fill="none" stroke="#000000" d="M832.7595,-110.8662C832.7595,-102.6423 832.7595,-93.8301 832.7595,-85.267"/>
<polygon fill="#000000" stroke="#000000" points="836.2595,-85.0017 832.7595,-75.0017 829.2595,-85.0017 836.2595,-85.0017"/>
</g>
<!-- n11 -->
<g id="node11" class="node">
<title>n11</title>
<g id="a_node11"><a xlink:title="[./3d_test.lua]:165_">
<ellipse fill="none" stroke="#000000" cx="490.7595" cy="-1810.3385" rx="133.7865" ry="48.1667"/>
<text text-anchor="middle" x="490.7595" y="-1829.1385" font-family="Times,serif" font-size="14.00" fill="#000000">Node11</text>
<text text-anchor="start" x="404.2595" y="-1814.1385" font-family="Times,serif" font-size="14.00" fill="#000000">module = nn.JoinTable</text>
<text text-anchor="start" x="404.2595" y="-1799.1385" font-family="Times,serif" font-size="14.00" fill="#000000">reverseMap = {}</text>
<text text-anchor="middle" x="490.7595" y="-1784.1385" font-family="Times,serif" font-size="14.00" fill="#000000">mapindex = {Node12,Node13}</text>
</a>
</g>
</g>
<!-- n8&#45;&gt;n11 -->
<g id="edge10" class="edge">
<title>n8&#45;&gt;n11</title>
<path fill="none" stroke="#000000" d="M490.7595,-1894.2683C490.7595,-1885.5993 490.7595,-1877.0326 490.7595,-1868.8757"/>
<polygon fill="#000000" stroke="#000000" points="494.2596,-1868.7857 490.7595,-1858.7858 487.2596,-1868.7858 494.2596,-1868.7857"/>
</g>
<!-- n9&#45;&gt;n5 -->
<g id="edge11" class="edge">
<title>n9&#45;&gt;n5</title>
<path fill="none" stroke="#000000" d="M751.0824,-441.5261C757.8599,-430.8127 764.7539,-419.9152 771.5182,-409.2225"/>
<polygon fill="#000000" stroke="#000000" points="774.5222,-411.0207 776.9106,-400.6986 768.6065,-407.2783 774.5222,-411.0207"/>
</g>
<!-- n12 -->
<g id="node12" class="node">
<title>n12</title>
<g id="a_node12"><a xlink:title="[[C]]:&#45;1_">
<ellipse fill="none" stroke="#000000" cx="367.7595" cy="-1635.7455" rx="249.7174" ry="90.5193"/>
<text text-anchor="middle" x="367.7595" y="-1684.5455" font-family="Times,serif" font-size="14.00" fill="#000000">Node12</text>
<text text-anchor="start" x="199.2595" y="-1669.5455" font-family="Times,serif" font-size="14.00" fill="#000000">module = nn.Sequential {</text>
<text text-anchor="start" x="199.2595" y="-1654.5455" font-family="Times,serif" font-size="14.00" fill="#000000"> &#160;[input &#45;&gt; (1) &#45;&gt; (2) &#45;&gt; (3) &#45;&gt; output]</text>
<text text-anchor="start" x="199.2595" y="-1639.5455" font-family="Times,serif" font-size="14.00" fill="#000000"> &#160;(1): cudnn.VolumetricFullConvolution(1280 &#45;&gt; 320, 4x4x4)</text>
<text text-anchor="start" x="199.2595" y="-1624.5455" font-family="Times,serif" font-size="14.00" fill="#000000"> &#160;(2): cudnn.VolumetricBatchNormalization</text>
<text text-anchor="start" x="199.2595" y="-1609.5455" font-family="Times,serif" font-size="14.00" fill="#000000"> &#160;(3): cudnn.ReLU</text>
<text text-anchor="start" x="199.2595" y="-1594.5455" font-family="Times,serif" font-size="14.00" fill="#000000">}</text>
<text text-anchor="middle" x="367.7595" y="-1579.5455" font-family="Times,serif" font-size="14.00" fill="#000000">reverseMap = {}</text>
</a>
</g>
</g>
<!-- n11&#45;&gt;n12 -->
<g id="edge12" class="edge">
<title>n11&#45;&gt;n12</title>
<path fill="none" stroke="#000000" d="M457.7977,-1763.5508C450.8229,-1753.6503 443.2188,-1742.8567 435.482,-1731.8747"/>
<polygon fill="#000000" stroke="#000000" points="438.1686,-1729.6109 429.548,-1723.4516 432.4461,-1733.6424 438.1686,-1729.6109"/>
</g>
<!-- n13 -->
<g id="node13" class="node">
<title>n13</title>
<g id="a_node13"><a xlink:title="[[C]]:&#45;1_">
<ellipse fill="none" stroke="#000000" cx="521.7595" cy="-778.2748" rx="264.4159" ry="101.2327"/>
<text text-anchor="middle" x="521.7595" y="-834.5748" font-family="Times,serif" font-size="14.00" fill="#000000">Node13</text>
<text text-anchor="start" x="342.7595" y="-819.5748" font-family="Times,serif" font-size="14.00" fill="#000000">module = nn.Sequential {</text>
<text text-anchor="start" x="342.7595" y="-804.5748" font-family="Times,serif" font-size="14.00" fill="#000000"> &#160;[input &#45;&gt; (1) &#45;&gt; (2) &#45;&gt; (3) &#45;&gt; (4) &#45;&gt; output]</text>
<text text-anchor="start" x="342.7595" y="-789.5748" font-family="Times,serif" font-size="14.00" fill="#000000"> &#160;(1): oc.OctreeConvolutionMM(160 &#45;&gt; 320, 3x3x3, 1,1,1, 1,1,1)</text>
<text text-anchor="start" x="342.7595" y="-774.5748" font-family="Times,serif" font-size="14.00" fill="#000000"> &#160;(2): oc.OctreeToCDHW</text>
<text text-anchor="start" x="342.7595" y="-759.5748" font-family="Times,serif" font-size="14.00" fill="#000000"> &#160;(3): cudnn.VolumetricMaxPooling</text>
<text text-anchor="start" x="342.7595" y="-744.5748" font-family="Times,serif" font-size="14.00" fill="#000000"> &#160;(4): nn.LeakyReLU(0.2)</text>
<text text-anchor="start" x="342.7595" y="-729.5748" font-family="Times,serif" font-size="14.00" fill="#000000">}</text>
<text text-anchor="middle" x="521.7595" y="-714.5748" font-family="Times,serif" font-size="14.00" fill="#000000">reverseMap = {}</text>
</a>
</g>
</g>
<!-- n11&#45;&gt;n13 -->
<g id="edge13" class="edge">
<title>n11&#45;&gt;n13</title>
<path fill="none" stroke="#000000" d="M577.5017,-1773.5978C596.7829,-1761.3535 614.9724,-1745.7284 626.7595,-1726.2552 687.9275,-1625.2001 645.7595,-1579.2782 645.7595,-1461.1526 645.7595,-1461.1526 645.7595,-1461.1526 645.7595,-1254.7399 645.7595,-1103.682 679.2269,-1057.0444 626.7595,-915.3911 622.6915,-904.4081 617.4202,-893.5845 611.4076,-883.1271"/>
<polygon fill="#000000" stroke="#000000" points="614.3383,-881.2088 606.1928,-874.4337 608.3355,-884.8096 614.3383,-881.2088"/>
</g>
<!-- n14 -->
<g id="node14" class="node">
<title>n14</title>
<g id="a_node14"><a xlink:title="[./3d_test.lua]:164_">
<ellipse fill="none" stroke="#000000" cx="367.7595" cy="-1461.1526" rx="133.7865" ry="48.1667"/>
<text text-anchor="middle" x="367.7595" y="-1479.9526" font-family="Times,serif" font-size="14.00" fill="#000000">Node14</text>
<text text-anchor="start" x="281.2595" y="-1464.9526" font-family="Times,serif" font-size="14.00" fill="#000000">module = nn.JoinTable</text>
<text text-anchor="start" x="281.2595" y="-1449.9526" font-family="Times,serif" font-size="14.00" fill="#000000">reverseMap = {}</text>
<text text-anchor="middle" x="367.7595" y="-1434.9526" font-family="Times,serif" font-size="14.00" fill="#000000">mapindex = {Node15,Node16}</text>
</a>
</g>
</g>
<!-- n12&#45;&gt;n14 -->
<g id="edge14" class="edge">
<title>n12&#45;&gt;n14</title>
<path fill="none" stroke="#000000" d="M367.7595,-1545.125C367.7595,-1536.4845 367.7595,-1527.8874 367.7595,-1519.6731"/>
<polygon fill="#000000" stroke="#000000" points="371.2595,-1519.4985 367.7595,-1509.4985 364.2595,-1519.4985 371.2595,-1519.4985"/>
</g>
<!-- n13&#45;&gt;n9 -->
<g id="edge15" class="edge">
<title>n13&#45;&gt;n9</title>
<path fill="none" stroke="#000000" d="M590.4077,-680.3452C598.2984,-669.0887 606.3719,-657.5715 614.3341,-646.2131"/>
<polygon fill="#000000" stroke="#000000" points="617.2338,-648.1741 620.1079,-637.9766 611.5018,-644.156 617.2338,-648.1741"/>
</g>
<!-- n15 -->
<g id="node15" class="node">
<title>n15</title>
<g id="a_node15"><a xlink:title="[[C]]:&#45;1_">
<ellipse fill="none" stroke="#000000" cx="234.7595" cy="-1254.7399" rx="234.5191" ry="122.1592"/>
<text text-anchor="middle" x="234.7595" y="-1326.0399" font-family="Times,serif" font-size="14.00" fill="#000000">Node15</text>
<text text-anchor="start" x="76.7595" y="-1311.0399" font-family="Times,serif" font-size="14.00" fill="#000000">module = nn.Sequential {</text>
<text text-anchor="start" x="76.7595" y="-1296.0399" font-family="Times,serif" font-size="14.00" fill="#000000"> &#160;[input &#45;&gt; (1) &#45;&gt; (2) &#45;&gt; (3) &#45;&gt; (4) &#45;&gt; (5) &#45;&gt; (6) &#45;&gt; output]</text>
<text text-anchor="start" x="76.7595" y="-1281.0399" font-family="Times,serif" font-size="14.00" fill="#000000"> &#160;(1): nn.View(640)</text>
<text text-anchor="start" x="76.7595" y="-1266.0399" font-family="Times,serif" font-size="14.00" fill="#000000"> &#160;(2): nn.Linear(640 &#45;&gt; 640)</text>
<text text-anchor="start" x="76.7595" y="-1251.0399" font-family="Times,serif" font-size="14.00" fill="#000000"> &#160;(3): nn.ReLU</text>
<text text-anchor="start" x="76.7595" y="-1236.0399" font-family="Times,serif" font-size="14.00" fill="#000000"> &#160;(4): nn.Linear(640 &#45;&gt; 640)</text>
<text text-anchor="start" x="76.7595" y="-1221.0399" font-family="Times,serif" font-size="14.00" fill="#000000"> &#160;(5): nn.ReLU</text>
<text text-anchor="start" x="76.7595" y="-1206.0399" font-family="Times,serif" font-size="14.00" fill="#000000"> &#160;(6): nn.View(1, 640, 1, 1, 1)</text>
<text text-anchor="start" x="76.7595" y="-1191.0399" font-family="Times,serif" font-size="14.00" fill="#000000">}</text>
<text text-anchor="middle" x="234.7595" y="-1176.0399" font-family="Times,serif" font-size="14.00" fill="#000000">reverseMap = {}</text>
</a>
</g>
</g>
<!-- n14&#45;&gt;n15 -->
<g id="edge16" class="edge">
<title>n14&#45;&gt;n15</title>
<path fill="none" stroke="#000000" d="M337.4133,-1414.0561C330.5611,-1403.4217 322.9732,-1391.6455 315.1152,-1379.45"/>
<polygon fill="#000000" stroke="#000000" points="317.9962,-1377.4593 309.6376,-1370.9489 312.1119,-1381.2508 317.9962,-1377.4593"/>
</g>
<!-- n16 -->
<g id="node16" class="node">
<title>n16</title>
<g id="a_node16"><a xlink:title="[[C]]:&#45;1_">
<ellipse fill="none" stroke="#000000" cx="387.7595" cy="-1005.9007" rx="229.6196" ry="90.5193"/>
<text text-anchor="middle" x="387.7595" y="-1054.7007" font-family="Times,serif" font-size="14.00" fill="#000000">Node16</text>
<text text-anchor="start" x="233.2595" y="-1039.7007" font-family="Times,serif" font-size="14.00" fill="#000000">module = nn.Sequential {</text>
<text text-anchor="start" x="233.2595" y="-1024.7007" font-family="Times,serif" font-size="14.00" fill="#000000"> &#160;[input &#45;&gt; (1) &#45;&gt; (2) &#45;&gt; (3) &#45;&gt; output]</text>
<text text-anchor="start" x="233.2595" y="-1009.7007" font-family="Times,serif" font-size="14.00" fill="#000000"> &#160;(1): cudnn.VolumetricConvolution(320 &#45;&gt; 640, 4x4x4)</text>
<text text-anchor="start" x="233.2595" y="-994.7007" font-family="Times,serif" font-size="14.00" fill="#000000"> &#160;(2): cudnn.VolumetricBatchNormalization</text>
<text text-anchor="start" x="233.2595" y="-979.7007" font-family="Times,serif" font-size="14.00" fill="#000000"> &#160;(3): nn.LeakyReLU(0.2)</text>
<text text-anchor="start" x="233.2595" y="-964.7007" font-family="Times,serif" font-size="14.00" fill="#000000">}</text>
<text text-anchor="middle" x="387.7595" y="-949.7007" font-family="Times,serif" font-size="14.00" fill="#000000">reverseMap = {}</text>
</a>
</g>
</g>
<!-- n14&#45;&gt;n16 -->
<g id="edge17" class="edge">
<title>n14&#45;&gt;n16</title>
<path fill="none" stroke="#000000" d="M441.0953,-1420.9034C456.2594,-1408.9107 470.2053,-1394.2804 478.7595,-1377.0693 527.1553,-1279.6956 512.1155,-1235.9052 478.7595,-1132.4104 475.2931,-1121.6554 470.5357,-1111.0423 465.0007,-1100.8112"/>
<polygon fill="#000000" stroke="#000000" points="467.9339,-1098.8887 459.9494,-1091.9246 461.8483,-1102.3479 467.9339,-1098.8887"/>
</g>
<!-- n15&#45;&gt;n16 -->
<g id="edge18" class="edge">
<title>n15&#45;&gt;n16</title>
<path fill="none" stroke="#000000" d="M306.5555,-1137.9707C313.7943,-1126.1976 321.0894,-1114.3328 328.1804,-1102.8001"/>
<polygon fill="#000000" stroke="#000000" points="331.3025,-1104.4046 333.5587,-1094.0528 325.3395,-1100.7382 331.3025,-1104.4046"/>
</g>
<!-- n16&#45;&gt;n13 -->
<g id="edge19" class="edge">
<title>n16&#45;&gt;n13</title>
<path fill="none" stroke="#000000" d="M439.7591,-917.5688C445.8514,-907.2198 452.1182,-896.5745 458.3435,-885.9995"/>
<polygon fill="#000000" stroke="#000000" points="461.5014,-887.5344 463.5583,-877.1411 455.469,-883.9832 461.5014,-887.5344"/>
</g>
</g>
</svg>
