<?xml version="1.0" encoding="UTF-8" standalone="no"?>
<!DOCTYPE svg PUBLIC "-//W3C//DTD SVG 1.1//EN"
 "http://www.w3.org/Graphics/SVG/1.1/DTD/svg11.dtd">
<!-- Generated by graphviz version 2.40.1 (20161225.0304)
 -->
<!-- Title: G Pages: 1 -->
<svg width="1096pt" height="2956pt"
 viewBox="0.00 0.00 1096.02 2956.41" xmlns="http://www.w3.org/2000/svg" xmlns:xlink="http://www.w3.org/1999/xlink">
<g id="graph0" class="graph" transform="scale(1 1) rotate(0) translate(4 2952.4057)">
<title>G</title>
<polygon fill="#ffffff" stroke="transparent" points="-4,4 -4,-2952.4057 1092.025,-2952.4057 1092.025,4 -4,4"/>
<!-- n1 -->
<g id="node1" class="node">
<title>n1</title>
<g id="a_node1"><a xlink:title="[[C]]:&#45;1_">
<ellipse fill="none" stroke="#000000" cx="255.2655" cy="-212.0696" rx="255.0313" ry="101.2327"/>
<text text-anchor="middle" x="255.2655" y="-268.3696" font-family="Times,serif" font-size="14.00" fill="#000000">Node1</text>
<text text-anchor="start" x="82.7655" y="-253.3696" font-family="Times,serif" font-size="14.00" fill="#000000">module = nn.Sequential {</text>
<text text-anchor="start" x="82.7655" y="-238.3696" font-family="Times,serif" font-size="14.00" fill="#000000"> &#160;[input &#45;&gt; (1) &#45;&gt; (2) &#45;&gt; (3) &#45;&gt; (4) &#45;&gt; output]</text>
<text text-anchor="start" x="82.7655" y="-223.3696" font-family="Times,serif" font-size="14.00" fill="#000000"> &#160;(1): oc.OctreeGridUnpool2x2x2</text>
<text text-anchor="start" x="82.7655" y="-208.3696" font-family="Times,serif" font-size="14.00" fill="#000000"> &#160;(2): oc.OctreeConvolutionMM(160 &#45;&gt; 1, 3x3x3, 1,1,1, 1,1,1)</text>
<text text-anchor="start" x="82.7655" y="-193.3696" font-family="Times,serif" font-size="14.00" fill="#000000"> &#160;(3): oc.OctreeBatchNormalizationSS</text>
<text text-anchor="start" x="82.7655" y="-178.3696" font-family="Times,serif" font-size="14.00" fill="#000000"> &#160;(4): oc.OctreeReLU</text>
<text text-anchor="start" x="82.7655" y="-163.3696" font-family="Times,serif" font-size="14.00" fill="#000000">}</text>
<text text-anchor="middle" x="255.2655" y="-148.3696" font-family="Times,serif" font-size="14.00" fill="#000000">reverseMap = {}</text>
</a>
</g>
</g>
<!-- n2 -->
<g id="node2" class="node">
<title>n2</title>
<g id="a_node2"><a xlink:title="[[C]]:&#45;1_">
<ellipse fill="none" stroke="#000000" cx="255.2655" cy="-37.4767" rx="77.5641" ry="37.4533"/>
<text text-anchor="middle" x="255.2655" y="-48.7767" font-family="Times,serif" font-size="14.00" fill="#000000">Node2</text>
<text text-anchor="start" x="208.2655" y="-33.7767" font-family="Times,serif" font-size="14.00" fill="#000000">input = {}</text>
<text text-anchor="middle" x="255.2655" y="-18.7767" font-family="Times,serif" font-size="14.00" fill="#000000">reverseMap = {}</text>
</a>
</g>
</g>
<!-- n1&#45;&gt;n2 -->
<g id="edge1" class="edge">
<title>n1&#45;&gt;n2</title>
<path fill="none" stroke="#000000" d="M255.2655,-110.7609C255.2655,-101.9749 255.2655,-93.3833 255.2655,-85.3548"/>
<polygon fill="#000000" stroke="#000000" points="258.7656,-85.1558 255.2655,-75.1558 251.7656,-85.1559 258.7656,-85.1558"/>
</g>
<!-- n3 -->
<g id="node3" class="node">
<title>n3</title>
<g id="a_node3"><a xlink:title="[./3d_test.lua]:167_">
<ellipse fill="none" stroke="#000000" cx="255.2655" cy="-397.2691" rx="124.4016" ry="48.1667"/>
<text text-anchor="middle" x="255.2655" y="-416.0691" font-family="Times,serif" font-size="14.00" fill="#000000">Node3</text>
<text text-anchor="start" x="175.2655" y="-401.0691" font-family="Times,serif" font-size="14.00" fill="#000000">module = oc.OctreeConcat</text>
<text text-anchor="start" x="175.2655" y="-386.0691" font-family="Times,serif" font-size="14.00" fill="#000000">reverseMap = {}</text>
<text text-anchor="middle" x="255.2655" y="-371.0691" font-family="Times,serif" font-size="14.00" fill="#000000">mapindex = {Node4,Node5}</text>
</a>
</g>
</g>
<!-- n3&#45;&gt;n1 -->
<g id="edge2" class="edge">
<title>n3&#45;&gt;n1</title>
<path fill="none" stroke="#000000" d="M255.2655,-349.0936C255.2655,-340.9951 255.2655,-332.3026 255.2655,-323.3677"/>
<polygon fill="#000000" stroke="#000000" points="258.7656,-323.1957 255.2655,-313.1957 251.7656,-323.1957 258.7656,-323.1957"/>
</g>
<!-- n4 -->
<g id="node4" class="node">
<title>n4</title>
<g id="a_node4"><a xlink:title="[[C]]:&#45;1_">
<ellipse fill="none" stroke="#000000" cx="399.2655" cy="-582.4687" rx="260.4308" ry="101.2327"/>
<text text-anchor="middle" x="399.2655" y="-638.7687" font-family="Times,serif" font-size="14.00" fill="#000000">Node4</text>
<text text-anchor="start" x="223.2655" y="-623.7687" font-family="Times,serif" font-size="14.00" fill="#000000">module = nn.Sequential {</text>
<text text-anchor="start" x="223.2655" y="-608.7687" font-family="Times,serif" font-size="14.00" fill="#000000"> &#160;[input &#45;&gt; (1) &#45;&gt; (2) &#45;&gt; (3) &#45;&gt; (4) &#45;&gt; output]</text>
<text text-anchor="start" x="223.2655" y="-593.7687" font-family="Times,serif" font-size="14.00" fill="#000000"> &#160;(1): oc.OctreeGridUnpool2x2x2</text>
<text text-anchor="start" x="223.2655" y="-578.7687" font-family="Times,serif" font-size="14.00" fill="#000000"> &#160;(2): oc.OctreeConvolutionMM(320 &#45;&gt; 80, 3x3x3, 1,1,1, 1,1,1)</text>
<text text-anchor="start" x="223.2655" y="-563.7687" font-family="Times,serif" font-size="14.00" fill="#000000"> &#160;(3): oc.OctreeBatchNormalizationSS</text>
<text text-anchor="start" x="223.2655" y="-548.7687" font-family="Times,serif" font-size="14.00" fill="#000000"> &#160;(4): oc.OctreeReLU</text>
<text text-anchor="start" x="223.2655" y="-533.7687" font-family="Times,serif" font-size="14.00" fill="#000000">}</text>
<text text-anchor="middle" x="399.2655" y="-518.7687" font-family="Times,serif" font-size="14.00" fill="#000000">reverseMap = {}</text>
</a>
</g>
</g>
<!-- n4&#45;&gt;n3 -->
<g id="edge3" class="edge">
<title>n4&#45;&gt;n3</title>
<path fill="none" stroke="#000000" d="M323.8916,-485.5297C314.7816,-473.8132 305.7438,-462.1896 297.3632,-451.4113"/>
<polygon fill="#000000" stroke="#000000" points="299.9937,-449.0923 291.0924,-443.3463 294.4676,-453.3891 299.9937,-449.0923"/>
</g>
<!-- n5 -->
<g id="node5" class="node">
<title>n5</title>
<g id="a_node5"><a xlink:title="[[C]]:&#45;1_">
<ellipse fill="none" stroke="#000000" cx="255.2655" cy="-2635.9894" rx="250.1317" ry="90.5193"/>
<text text-anchor="middle" x="255.2655" y="-2684.7894" font-family="Times,serif" font-size="14.00" fill="#000000">Node5</text>
<text text-anchor="start" x="86.2655" y="-2669.7894" font-family="Times,serif" font-size="14.00" fill="#000000">module = nn.Sequential {</text>
<text text-anchor="start" x="86.2655" y="-2654.7894" font-family="Times,serif" font-size="14.00" fill="#000000"> &#160;[input &#45;&gt; (1) &#45;&gt; (2) &#45;&gt; (3) &#45;&gt; output]</text>
<text text-anchor="start" x="86.2655" y="-2639.7894" font-family="Times,serif" font-size="14.00" fill="#000000"> &#160;(1): oc.OctreeConvolutionMM(2 &#45;&gt; 80, 3x3x3, 1,1,1, 1,1,1)</text>
<text text-anchor="start" x="86.2655" y="-2624.7894" font-family="Times,serif" font-size="14.00" fill="#000000"> &#160;(2): oc.OctreeGridPool2x2x2</text>
<text text-anchor="start" x="86.2655" y="-2609.7894" font-family="Times,serif" font-size="14.00" fill="#000000"> &#160;(3): oc.OctreeReLU</text>
<text text-anchor="start" x="86.2655" y="-2594.7894" font-family="Times,serif" font-size="14.00" fill="#000000">}</text>
<text text-anchor="middle" x="255.2655" y="-2579.7894" font-family="Times,serif" font-size="14.00" fill="#000000">reverseMap = {}</text>
</a>
</g>
</g>
<!-- n5&#45;&gt;n3 -->
<g id="edge4" class="edge">
<title>n5&#45;&gt;n3</title>
<path fill="none" stroke="#000000" d="M157.2371,-2552.4581C146.5004,-2539.1593 137.0286,-2524.7197 130.2655,-2509.4797 68.9925,-2371.4069 111.2655,-2321.1888 111.2655,-2170.1309 111.2655,-2170.1309 111.2655,-2170.1309 111.2655,-767.6682 111.2655,-640.1368 66.626,-591.8705 130.2655,-481.3524 139.4606,-465.3841 153.0619,-451.8365 167.9479,-440.5868"/>
<polygon fill="#000000" stroke="#000000" points="170.2455,-443.246 176.3302,-434.5726 166.1648,-437.5585 170.2455,-443.246"/>
</g>
<!-- n9 -->
<g id="node9" class="node">
<title>n9</title>
<g id="a_node9"><a xlink:title="[[C]]:&#45;1_">
<ellipse fill="none" stroke="#000000" cx="399.2655" cy="-2408.3635" rx="260.4308" ry="101.2327"/>
<text text-anchor="middle" x="399.2655" y="-2464.6635" font-family="Times,serif" font-size="14.00" fill="#000000">Node9</text>
<text text-anchor="start" x="223.2655" y="-2449.6635" font-family="Times,serif" font-size="14.00" fill="#000000">module = nn.Sequential {</text>
<text text-anchor="start" x="223.2655" y="-2434.6635" font-family="Times,serif" font-size="14.00" fill="#000000"> &#160;[input &#45;&gt; (1) &#45;&gt; (2) &#45;&gt; (3) &#45;&gt; (4) &#45;&gt; output]</text>
<text text-anchor="start" x="223.2655" y="-2419.6635" font-family="Times,serif" font-size="14.00" fill="#000000"> &#160;(1): oc.OctreeConvolutionMM(80 &#45;&gt; 160, 3x3x3, 1,1,1, 1,1,1)</text>
<text text-anchor="start" x="223.2655" y="-2404.6635" font-family="Times,serif" font-size="14.00" fill="#000000"> &#160;(2): oc.OctreeGridPool2x2x2</text>
<text text-anchor="start" x="223.2655" y="-2389.6635" font-family="Times,serif" font-size="14.00" fill="#000000"> &#160;(3): oc.OctreeBatchNormalizationSS</text>
<text text-anchor="start" x="223.2655" y="-2374.6635" font-family="Times,serif" font-size="14.00" fill="#000000"> &#160;(4): oc.OctreeReLU</text>
<text text-anchor="start" x="223.2655" y="-2359.6635" font-family="Times,serif" font-size="14.00" fill="#000000">}</text>
<text text-anchor="middle" x="399.2655" y="-2344.6635" font-family="Times,serif" font-size="14.00" fill="#000000">reverseMap = {}</text>
</a>
</g>
</g>
<!-- n5&#45;&gt;n9 -->
<g id="edge11" class="edge">
<title>n5&#45;&gt;n9</title>
<path fill="none" stroke="#000000" d="M311.1458,-2547.6575C317.8206,-2537.1064 324.6902,-2526.2473 331.5089,-2515.4688"/>
<polygon fill="#000000" stroke="#000000" points="334.5734,-2517.1714 336.9618,-2506.8493 328.6577,-2513.429 334.5734,-2517.1714"/>
</g>
<!-- n6 -->
<g id="node6" class="node">
<title>n6</title>
<g id="a_node6"><a xlink:title="[./3d_test.lua]:166_">
<ellipse fill="none" stroke="#000000" cx="399.2655" cy="-767.6682" rx="124.4016" ry="48.1667"/>
<text text-anchor="middle" x="399.2655" y="-786.4682" font-family="Times,serif" font-size="14.00" fill="#000000">Node6</text>
<text text-anchor="start" x="319.2655" y="-771.4682" font-family="Times,serif" font-size="14.00" fill="#000000">module = oc.OctreeConcat</text>
<text text-anchor="start" x="319.2655" y="-756.4682" font-family="Times,serif" font-size="14.00" fill="#000000">reverseMap = {}</text>
<text text-anchor="middle" x="399.2655" y="-741.4682" font-family="Times,serif" font-size="14.00" fill="#000000">mapindex = {Node8,Node9}</text>
</a>
</g>
</g>
<!-- n6&#45;&gt;n4 -->
<g id="edge5" class="edge">
<title>n6&#45;&gt;n4</title>
<path fill="none" stroke="#000000" d="M399.2655,-719.4926C399.2655,-711.3942 399.2655,-702.7017 399.2655,-693.7668"/>
<polygon fill="#000000" stroke="#000000" points="402.7656,-693.5947 399.2655,-683.5948 395.7656,-693.5948 402.7656,-693.5947"/>
</g>
<!-- n7 -->
<g id="node7" class="node">
<title>n7</title>
<g id="a_node7"><a xlink:title="[[C]]:&#45;1_">
<ellipse fill="none" stroke="#000000" cx="255.2655" cy="-2799.9757" rx="94.0904" ry="37.4533"/>
<text text-anchor="middle" x="255.2655" y="-2811.2757" font-family="Times,serif" font-size="14.00" fill="#000000">Node7</text>
<text text-anchor="start" x="196.7655" y="-2796.2757" font-family="Times,serif" font-size="14.00" fill="#000000">module = nn.Identity</text>
<text text-anchor="middle" x="255.2655" y="-2781.2757" font-family="Times,serif" font-size="14.00" fill="#000000">reverseMap = {}</text>
</a>
</g>
</g>
<!-- n7&#45;&gt;n5 -->
<g id="edge6" class="edge">
<title>n7&#45;&gt;n5</title>
<path fill="none" stroke="#000000" d="M255.2655,-2762.3539C255.2655,-2754.5218 255.2655,-2745.9166 255.2655,-2736.9936"/>
<polygon fill="#000000" stroke="#000000" points="258.7656,-2736.8083 255.2655,-2726.8083 251.7656,-2736.8084 258.7656,-2736.8083"/>
</g>
<!-- n8 -->
<g id="node8" class="node">
<title>n8</title>
<g id="a_node8"><a xlink:title="[[C]]:&#45;1_">
<ellipse fill="none" stroke="#000000" cx="597.2655" cy="-952.8677" rx="294.7271" ry="101.2327"/>
<text text-anchor="middle" x="597.2655" y="-1009.1677" font-family="Times,serif" font-size="14.00" fill="#000000">Node8</text>
<text text-anchor="start" x="396.7655" y="-994.1677" font-family="Times,serif" font-size="14.00" fill="#000000">module = nn.Sequential {</text>
<text text-anchor="start" x="396.7655" y="-979.1677" font-family="Times,serif" font-size="14.00" fill="#000000"> &#160;[input &#45;&gt; (1) &#45;&gt; (2) &#45;&gt; (3) &#45;&gt; (4) &#45;&gt; output]</text>
<text text-anchor="start" x="396.7655" y="-964.1677" font-family="Times,serif" font-size="14.00" fill="#000000"> &#160;(1): cudnn.VolumetricFullConvolution(640 &#45;&gt; 160, 4x4x4, 2,2,2, 1,1,1)</text>
<text text-anchor="start" x="396.7655" y="-949.1677" font-family="Times,serif" font-size="14.00" fill="#000000"> &#160;(2): cudnn.VolumetricBatchNormalization</text>
<text text-anchor="start" x="396.7655" y="-934.1677" font-family="Times,serif" font-size="14.00" fill="#000000"> &#160;(3): cudnn.ReLU</text>
<text text-anchor="start" x="396.7655" y="-919.1677" font-family="Times,serif" font-size="14.00" fill="#000000"> &#160;(4): oc.CDHWToOctree</text>
<text text-anchor="start" x="396.7655" y="-904.1677" font-family="Times,serif" font-size="14.00" fill="#000000">}</text>
<text text-anchor="middle" x="597.2655" y="-889.1677" font-family="Times,serif" font-size="14.00" fill="#000000">reverseMap = {}</text>
</a>
</g>
</g>
<!-- n8&#45;&gt;n6 -->
<g id="edge7" class="edge">
<title>n8&#45;&gt;n6</title>
<path fill="none" stroke="#000000" d="M495.6555,-857.8266C481.5271,-844.6116 467.4696,-831.4629 454.6351,-819.4582"/>
<polygon fill="#000000" stroke="#000000" points="456.9225,-816.8052 447.2284,-812.5303 452.1407,-821.9175 456.9225,-816.8052"/>
</g>
<!-- n9&#45;&gt;n6 -->
<g id="edge8" class="edge">
<title>n9&#45;&gt;n6</title>
<path fill="none" stroke="#000000" d="M314.3031,-2312.6616C305.9365,-2299.4318 298.5887,-2285.4791 293.2655,-2271.2472 241.9952,-2134.1702 274.2655,-2088.8564 274.2655,-1942.505 274.2655,-1942.505 274.2655,-1942.505 274.2655,-1138.0672 274.2655,-1010.5359 234.0094,-964.6804 293.2655,-851.7514 300.5623,-837.8455 311.2772,-825.4682 323.1274,-814.7694"/>
<polygon fill="#000000" stroke="#000000" points="325.7346,-817.1447 331.054,-807.982 321.1817,-811.8276 325.7346,-817.1447"/>
</g>
<!-- n13 -->
<g id="node13" class="node">
<title>n13</title>
<g id="a_node13"><a xlink:title="[[C]]:&#45;1_">
<ellipse fill="none" stroke="#000000" cx="566.2655" cy="-2170.1309" rx="264.4159" ry="101.2327"/>
<text text-anchor="middle" x="566.2655" y="-2226.4309" font-family="Times,serif" font-size="14.00" fill="#000000">Node13</text>
<text text-anchor="start" x="387.2655" y="-2211.4309" font-family="Times,serif" font-size="14.00" fill="#000000">module = nn.Sequential {</text>
<text text-anchor="start" x="387.2655" y="-2196.4309" font-family="Times,serif" font-size="14.00" fill="#000000"> &#160;[input &#45;&gt; (1) &#45;&gt; (2) &#45;&gt; (3) &#45;&gt; (4) &#45;&gt; output]</text>
<text text-anchor="start" x="387.2655" y="-2181.4309" font-family="Times,serif" font-size="14.00" fill="#000000"> &#160;(1): oc.OctreeConvolutionMM(160 &#45;&gt; 320, 3x3x3, 1,1,1, 1,1,1)</text>
<text text-anchor="start" x="387.2655" y="-2166.4309" font-family="Times,serif" font-size="14.00" fill="#000000"> &#160;(2): oc.OctreeToCDHW</text>
<text text-anchor="start" x="387.2655" y="-2151.4309" font-family="Times,serif" font-size="14.00" fill="#000000"> &#160;(3): cudnn.VolumetricMaxPooling</text>
<text text-anchor="start" x="387.2655" y="-2136.4309" font-family="Times,serif" font-size="14.00" fill="#000000"> &#160;(4): nn.LeakyReLU(0.2)</text>
<text text-anchor="start" x="387.2655" y="-2121.4309" font-family="Times,serif" font-size="14.00" fill="#000000">}</text>
<text text-anchor="middle" x="566.2655" y="-2106.4309" font-family="Times,serif" font-size="14.00" fill="#000000">reverseMap = {}</text>
</a>
</g>
</g>
<!-- n9&#45;&gt;n13 -->
<g id="edge15" class="edge">
<title>n9&#45;&gt;n13</title>
<path fill="none" stroke="#000000" d="M467.6727,-2310.7778C475.6459,-2299.4037 483.809,-2287.7586 491.8581,-2276.2763"/>
<polygon fill="#000000" stroke="#000000" points="494.8204,-2278.1479 497.6945,-2267.9503 489.0884,-2274.1298 494.8204,-2278.1479"/>
</g>
<!-- n10 -->
<g id="node10" class="node">
<title>n10</title>
<g id="a_node10"><a xlink:title="[[C]]:&#45;1_">
<ellipse fill="none" stroke="#000000" cx="255.2655" cy="-2910.929" rx="77.5641" ry="37.4533"/>
<text text-anchor="middle" x="255.2655" y="-2922.229" font-family="Times,serif" font-size="14.00" fill="#000000">Node10</text>
<text text-anchor="start" x="208.2655" y="-2907.229" font-family="Times,serif" font-size="14.00" fill="#000000">input = {}</text>
<text text-anchor="middle" x="255.2655" y="-2892.229" font-family="Times,serif" font-size="14.00" fill="#000000">reverseMap = {}</text>
</a>
</g>
</g>
<!-- n10&#45;&gt;n7 -->
<g id="edge9" class="edge">
<title>n10&#45;&gt;n7</title>
<path fill="none" stroke="#000000" d="M255.2655,-2873.3653C255.2655,-2865.1414 255.2655,-2856.3291 255.2655,-2847.766"/>
<polygon fill="#000000" stroke="#000000" points="258.7656,-2847.5007 255.2655,-2837.5008 251.7656,-2847.5008 258.7656,-2847.5007"/>
</g>
<!-- n11 -->
<g id="node11" class="node">
<title>n11</title>
<g id="a_node11"><a xlink:title="[./3d_test.lua]:165_">
<ellipse fill="none" stroke="#000000" cx="597.2655" cy="-1138.0672" rx="133.7865" ry="48.1667"/>
<text text-anchor="middle" x="597.2655" y="-1156.8672" font-family="Times,serif" font-size="14.00" fill="#000000">Node11</text>
<text text-anchor="start" x="510.7655" y="-1141.8672" font-family="Times,serif" font-size="14.00" fill="#000000">module = nn.JoinTable</text>
<text text-anchor="start" x="510.7655" y="-1126.8672" font-family="Times,serif" font-size="14.00" fill="#000000">reverseMap = {}</text>
<text text-anchor="middle" x="597.2655" y="-1111.8672" font-family="Times,serif" font-size="14.00" fill="#000000">mapindex = {Node12,Node13}</text>
</a>
</g>
</g>
<!-- n11&#45;&gt;n8 -->
<g id="edge10" class="edge">
<title>n11&#45;&gt;n8</title>
<path fill="none" stroke="#000000" d="M597.2655,-1089.8917C597.2655,-1081.7933 597.2655,-1073.1007 597.2655,-1064.1658"/>
<polygon fill="#000000" stroke="#000000" points="600.7656,-1063.9938 597.2655,-1053.9938 593.7656,-1063.9939 600.7656,-1063.9938"/>
</g>
<!-- n12 -->
<g id="node12" class="node">
<title>n12</title>
<g id="a_node12"><a xlink:title="[[C]]:&#45;1_">
<ellipse fill="none" stroke="#000000" cx="720.2655" cy="-1312.6602" rx="249.7174" ry="90.5193"/>
<text text-anchor="middle" x="720.2655" y="-1361.4602" font-family="Times,serif" font-size="14.00" fill="#000000">Node12</text>
<text text-anchor="start" x="551.7655" y="-1346.4602" font-family="Times,serif" font-size="14.00" fill="#000000">module = nn.Sequential {</text>
<text text-anchor="start" x="551.7655" y="-1331.4602" font-family="Times,serif" font-size="14.00" fill="#000000"> &#160;[input &#45;&gt; (1) &#45;&gt; (2) &#45;&gt; (3) &#45;&gt; output]</text>
<text text-anchor="start" x="551.7655" y="-1316.4602" font-family="Times,serif" font-size="14.00" fill="#000000"> &#160;(1): cudnn.VolumetricFullConvolution(1280 &#45;&gt; 320, 4x4x4)</text>
<text text-anchor="start" x="551.7655" y="-1301.4602" font-family="Times,serif" font-size="14.00" fill="#000000"> &#160;(2): cudnn.VolumetricBatchNormalization</text>
<text text-anchor="start" x="551.7655" y="-1286.4602" font-family="Times,serif" font-size="14.00" fill="#000000"> &#160;(3): cudnn.ReLU</text>
<text text-anchor="start" x="551.7655" y="-1271.4602" font-family="Times,serif" font-size="14.00" fill="#000000">}</text>
<text text-anchor="middle" x="720.2655" y="-1256.4602" font-family="Times,serif" font-size="14.00" fill="#000000">reverseMap = {}</text>
</a>
</g>
</g>
<!-- n12&#45;&gt;n11 -->
<g id="edge12" class="edge">
<title>n12&#45;&gt;n11</title>
<path fill="none" stroke="#000000" d="M658.4052,-1224.8522C650.8338,-1214.105 643.2698,-1203.3681 636.172,-1193.2932"/>
<polygon fill="#000000" stroke="#000000" points="638.9502,-1191.1595 630.3297,-1185.0002 633.2277,-1195.191 638.9502,-1191.1595"/>
</g>
<!-- n13&#45;&gt;n11 -->
<g id="edge13" class="edge">
<title>n13&#45;&gt;n11</title>
<path fill="none" stroke="#000000" d="M481.8322,-2073.972C473.651,-2060.87 466.4726,-2047.0728 461.2655,-2033.0146 408.7981,-1891.3613 442.2655,-1844.7237 442.2655,-1693.6658 442.2655,-1693.6658 442.2655,-1693.6658 442.2655,-1487.2531 442.2655,-1369.1275 400.0975,-1323.2056 461.2655,-1222.1505 471.3029,-1205.5679 485.9832,-1191.7757 502.0267,-1180.4855"/>
<polygon fill="#000000" stroke="#000000" points="504.1533,-1183.274 510.5233,-1174.8079 500.2641,-1177.4538 504.1533,-1183.274"/>
</g>
<!-- n16 -->
<g id="node16" class="node">
<title>n16</title>
<g id="a_node16"><a xlink:title="[[C]]:&#45;1_">
<ellipse fill="none" stroke="#000000" cx="700.2655" cy="-1942.505" rx="229.6196" ry="90.5193"/>
<text text-anchor="middle" x="700.2655" y="-1991.305" font-family="Times,serif" font-size="14.00" fill="#000000">Node16</text>
<text text-anchor="start" x="545.7655" y="-1976.305" font-family="Times,serif" font-size="14.00" fill="#000000">module = nn.Sequential {</text>
<text text-anchor="start" x="545.7655" y="-1961.305" font-family="Times,serif" font-size="14.00" fill="#000000"> &#160;[input &#45;&gt; (1) &#45;&gt; (2) &#45;&gt; (3) &#45;&gt; output]</text>
<text text-anchor="start" x="545.7655" y="-1946.305" font-family="Times,serif" font-size="14.00" fill="#000000"> &#160;(1): cudnn.VolumetricConvolution(320 &#45;&gt; 640, 4x4x4)</text>
<text text-anchor="start" x="545.7655" y="-1931.305" font-family="Times,serif" font-size="14.00" fill="#000000"> &#160;(2): cudnn.VolumetricBatchNormalization</text>
<text text-anchor="start" x="545.7655" y="-1916.305" font-family="Times,serif" font-size="14.00" fill="#000000"> &#160;(3): nn.LeakyReLU(0.2)</text>
<text text-anchor="start" x="545.7655" y="-1901.305" font-family="Times,serif" font-size="14.00" fill="#000000">}</text>
<text text-anchor="middle" x="700.2655" y="-1886.305" font-family="Times,serif" font-size="14.00" fill="#000000">reverseMap = {}</text>
</a>
</g>
</g>
<!-- n13&#45;&gt;n16 -->
<g id="edge19" class="edge">
<title>n13&#45;&gt;n16</title>
<path fill="none" stroke="#000000" d="M624.4553,-2071.2839C630.6355,-2060.7857 636.9174,-2050.1146 643.0858,-2039.6362"/>
<polygon fill="#000000" stroke="#000000" points="646.1789,-2041.2811 648.2359,-2030.8878 640.1466,-2037.7299 646.1789,-2041.2811"/>
</g>
<!-- n14 -->
<g id="node14" class="node">
<title>n14</title>
<g id="a_node14"><a xlink:title="[./3d_test.lua]:164_">
<ellipse fill="none" stroke="#000000" cx="720.2655" cy="-1487.2531" rx="133.7865" ry="48.1667"/>
<text text-anchor="middle" x="720.2655" y="-1506.0531" font-family="Times,serif" font-size="14.00" fill="#000000">Node14</text>
<text text-anchor="start" x="633.7655" y="-1491.0531" font-family="Times,serif" font-size="14.00" fill="#000000">module = nn.JoinTable</text>
<text text-anchor="start" x="633.7655" y="-1476.0531" font-family="Times,serif" font-size="14.00" fill="#000000">reverseMap = {}</text>
<text text-anchor="middle" x="720.2655" y="-1461.0531" font-family="Times,serif" font-size="14.00" fill="#000000">mapindex = {Node15,Node16}</text>
</a>
</g>
</g>
<!-- n14&#45;&gt;n12 -->
<g id="edge14" class="edge">
<title>n14&#45;&gt;n12</title>
<path fill="none" stroke="#000000" d="M720.2655,-1439.0826C720.2655,-1430.9424 720.2655,-1422.2299 720.2655,-1413.3274"/>
<polygon fill="#000000" stroke="#000000" points="723.7656,-1413.2158 720.2655,-1403.2158 716.7656,-1413.2158 723.7656,-1413.2158"/>
</g>
<!-- n15 -->
<g id="node15" class="node">
<title>n15</title>
<g id="a_node15"><a xlink:title="[[C]]:&#45;1_">
<ellipse fill="none" stroke="#000000" cx="853.2655" cy="-1693.6658" rx="234.5191" ry="122.1592"/>
<text text-anchor="middle" x="853.2655" y="-1764.9658" font-family="Times,serif" font-size="14.00" fill="#000000">Node15</text>
<text text-anchor="start" x="695.2655" y="-1749.9658" font-family="Times,serif" font-size="14.00" fill="#000000">module = nn.Sequential {</text>
<text text-anchor="start" x="695.2655" y="-1734.9658" font-family="Times,serif" font-size="14.00" fill="#000000"> &#160;[input &#45;&gt; (1) &#45;&gt; (2) &#45;&gt; (3) &#45;&gt; (4) &#45;&gt; (5) &#45;&gt; (6) &#45;&gt; output]</text>
<text text-anchor="start" x="695.2655" y="-1719.9658" font-family="Times,serif" font-size="14.00" fill="#000000"> &#160;(1): nn.View(640)</text>
<text text-anchor="start" x="695.2655" y="-1704.9658" font-family="Times,serif" font-size="14.00" fill="#000000"> &#160;(2): nn.Linear(640 &#45;&gt; 640)</text>
<text text-anchor="start" x="695.2655" y="-1689.9658" font-family="Times,serif" font-size="14.00" fill="#000000"> &#160;(3): nn.ReLU</text>
<text text-anchor="start" x="695.2655" y="-1674.9658" font-family="Times,serif" font-size="14.00" fill="#000000"> &#160;(4): nn.Linear(640 &#45;&gt; 640)</text>
<text text-anchor="start" x="695.2655" y="-1659.9658" font-family="Times,serif" font-size="14.00" fill="#000000"> &#160;(5): nn.ReLU</text>
<text text-anchor="start" x="695.2655" y="-1644.9658" font-family="Times,serif" font-size="14.00" fill="#000000"> &#160;(6): nn.View(1, 640, 1, 1, 1)</text>
<text text-anchor="start" x="695.2655" y="-1629.9658" font-family="Times,serif" font-size="14.00" fill="#000000">}</text>
<text text-anchor="middle" x="853.2655" y="-1614.9658" font-family="Times,serif" font-size="14.00" fill="#000000">reverseMap = {}</text>
</a>
</g>
</g>
<!-- n15&#45;&gt;n14 -->
<g id="edge16" class="edge">
<title>n15&#45;&gt;n14</title>
<path fill="none" stroke="#000000" d="M778.4078,-1577.4885C770.6708,-1565.4809 763.0873,-1553.7113 756.0849,-1542.8439"/>
<polygon fill="#000000" stroke="#000000" points="758.9605,-1540.8448 750.602,-1534.3345 753.0763,-1544.6364 758.9605,-1540.8448"/>
</g>
<!-- n16&#45;&gt;n14 -->
<g id="edge17" class="edge">
<title>n16&#45;&gt;n14</title>
<path fill="none" stroke="#000000" d="M628.0756,-1856.4811C620.3872,-1843.5689 613.7472,-1829.9008 609.2655,-1815.9953 575.9095,-1712.5005 560.8697,-1668.7101 609.2655,-1571.3364 616.3494,-1557.0834 627.131,-1544.6004 639.2398,-1533.9195"/>
<polygon fill="#000000" stroke="#000000" points="641.4943,-1536.5968 646.9297,-1527.5023 637.0093,-1531.2223 641.4943,-1536.5968"/>
</g>
<!-- n16&#45;&gt;n15 -->
<g id="edge18" class="edge">
<title>n16&#45;&gt;n15</title>
<path fill="none" stroke="#000000" d="M754.4229,-1854.4234C761.4787,-1842.948 768.8124,-1831.0205 776.1536,-1819.0808"/>
<polygon fill="#000000" stroke="#000000" points="779.2403,-1820.7427 781.4965,-1810.3909 773.2773,-1817.0763 779.2403,-1820.7427"/>
</g>
</g>
</svg>
